# xmcd CD database file
#
# Track frame offsets:
#	150
#	22665
#	44950
#	67417
#	90060
#	112525
#	135090
#	157900
#	178312
#	218085
#	244105
#
# Disc length: 3608 seconds
#
# Revision: 4
# Processed by: cddbd v1.5PL3 Copyright (c) Steve Scherf et al.
# Submitted via: CDex 1.51
#
DISCID=850e160b
DTITLE=角松敏生 - The gentle sex
DYEAR=2000
DGENRE=New Age
TTITLE0=UNSTEADY LOVE
TTITLE1=ALL OF YOU
TTITLE2=I CAN’T EVER CHANGE YOUR LOVE FOR ME
TTITLE3=SINGLE GIRL
TTITLE4=さよならを言わせて
TTITLE5=もどり道
TTITLE6=サヨナラはくちぐせ
TTITLE7=Bless Myself
TTITLE8=花瓶
TTITLE9=You’re My Only Shinin’ Star
TTITLE10=君という名の僕におしえたい
EXTD=YEAR: 2000
EXTT0=
EXTT1=
EXTT2=
EXTT3=
EXTT4=
EXTT5=
EXTT6=
EXTT7=
EXTT8=
EXTT9=
EXTT10=
PLAYORDER=
